<svg xmlns="http://www.w3.org/2000/svg" width="24" height="24" viewBox="0 0 24 24">
  <path fill-rule="evenodd" d="M7.5 15.9C7.4 16.1 7.2 16.3 7 16.4 6.8 16.4 6.6 16.4 6.4 16.4 5.4 16 4.6 15.4 3.9 14.7 3.2 14 2.6 13.2 2.2 12.3 2.1 12.1 2.1 11.9 2.2 11.7 2.3 11.5 2.5 11.3 2.7 11.2 2.8 11.2 2.9 11.2 3 11.2 3.4 11.2 3.6 11.4 3.8 11.7 4.1 12.4 4.5 13 5.1 13.6 5.6 14.1 6.3 14.5 7 14.8 7.2 14.9 7.4 15.1 7.5 15.3 7.5 15.5 7.5 15.7 7.5 15.9L7.5 15.9 7.5 15.9ZM19.7 20.4L20.3 19.9 17.2 16.8 18 15.9C18.2 15.7 18.3 15.5 18.3 15.3 18.3 15.1 18.2 14.9 18 14.7L17.2 13.9C18 12.6 18.4 11.1 18.4 9.6 18.4 8.3 18.1 7.2 17.6 6.1 17.2 5 16.5 4 15.7 3.2 14.9 2.4 13.9 1.8 12.8 1.3 11.6 0.8 10.4 0.6 9.2 0.6 7.9 0.6 6.8 0.8 5.6 1.3 4.5 1.8 3.5 2.4 2.7 3.2 1.9 4 1.2 5 0.7 6.1 0.2 7.2 0 8.3 0 9.6 0 10.8 0.2 11.9 0.7 13 1.2 14.1 1.9 15.1 2.7 15.9 3.5 16.7 4.5 17.3 5.6 17.8 6.8 18.3 7.9 18.5 9.2 18.5 10.8 18.5 12.3 18.1 13.7 17.4L14.5 18.2C14.7 18.4 14.9 18.4 15.1 18.4 15.3 18.4 15.5 18.4 15.7 18.2L16.6 17.3 19.7 20.4 19.7 20.4ZM19.9 21.1C19.8 21.1 19.7 21 19.6 21 19.5 21 19.4 21.1 19.3 21.1L18.1 22.3C18 22.4 18 22.5 18 22.6 18 22.7 18 22.8 18.1 22.9 18.2 23 18.3 23 18.4 23 18.5 23 18.6 23 18.7 22.9L19.9 21.7C19.9 21.6 20 21.5 20 21.4 20 21.3 19.9 21.2 19.9 21.1L19.9 21.1 19.9 21.1ZM22.9 18.2C22.8 18.1 22.7 18.1 22.6 18.1 22.4 18.1 22.4 18.1 22.3 18.2L21.1 19.4C21 19.5 20.9 19.6 20.9 19.7 20.9 19.8 21 19.9 21.1 20 21.2 20 21.3 20.1 21.4 20.1 21.5 20.1 21.6 20 21.7 20L22.9 18.8C22.9 18.7 23 18.6 23 18.5 23 18.4 22.9 18.3 22.9 18.2L22.9 18.2 22.9 18.2ZM23.4 20.6C23.4 20.4 23.3 20.3 23.3 20.3 23.2 20.2 23.1 20.1 23 20.1L21.7 20.1C21.6 20.1 21.5 20.2 21.4 20.3 21.3 20.3 21.3 20.4 21.3 20.6 21.3 20.7 21.3 20.8 21.4 20.8 21.5 20.9 21.6 21 21.7 21L23 21C23.1 21 23.2 20.9 23.3 20.8 23.3 20.8 23.4 20.7 23.4 20.6L23.4 20.6 23.4 20.6ZM20.9 23L20.9 21.8C20.9 21.7 20.8 21.6 20.8 21.5 20.7 21.4 20.6 21.4 20.5 21.4 20.3 21.4 20.2 21.4 20.2 21.5 20.1 21.6 20 21.7 20 21.8L20 23C20 23.1 20.1 23.2 20.2 23.3 20.2 23.4 20.3 23.4 20.5 23.4 20.6 23.4 20.7 23.4 20.8 23.3 20.8 23.2 20.9 23.1 20.9 23L20.9 23 20.9 23ZM22.9 22.3L21.7 21.1C21.6 21.1 21.5 21 21.4 21 21.3 21 21.2 21.1 21.1 21.1 21 21.2 20.9 21.3 20.9 21.4 20.9 21.5 21 21.6 21.1 21.7L22.3 22.9C22.3 23 22.4 23 22.6 23 22.7 23 22.8 23 22.9 22.9 22.9 22.8 23 22.7 23 22.6 23 22.5 22.9 22.4 22.9 22.3L22.9 22.3 22.9 22.3Z" transform="matrix(1 0 0 -1 0 24.001)"/>
</svg>