    <svg xmlns="http://www.w3.org/2000/svg" width="80" height="60" viewBox="0 0 80 60" background="#2d72d9">
      <g fill="none" fill-rule="evenodd" transform="translate(14 9)">
        <path fill="#FFFFFF" d="M12.11 25.51C11.97 25.87 11.73 26.12 11.39 26.26 11.05 26.4 10.7 26.4 10.35 26.26 8.82 25.63 7.47 24.74 6.3 23.56 5.13 22.39 4.23 21.04 3.61 19.51 3.46 19.16 3.46 18.81 3.61 18.47 3.75 18.13 3.99 17.89 4.35 17.75 4.53 17.68 4.7 17.65 4.86 17.65 5.45 17.65 5.87 17.93 6.13 18.49 6.61 19.68 7.31 20.73 8.22 21.64 9.13 22.56 10.18 23.25 11.37 23.73 11.72 23.89 11.97 24.14 12.11 24.47 12.25 24.81 12.25 25.16 12.11 25.51L12.11 25.51ZM32.09 33.06L33.06 32.09 27.89 26.94 29.33 25.49C29.6 25.22 29.73 24.9 29.73 24.53 29.73 24.15 29.6 23.83 29.33 23.56L27.97 22.21C29.23 19.93 29.86 17.5 29.86 14.93 29.86 12.91 29.47 10.98 28.68 9.13 27.9 7.29 26.84 5.69 25.5 4.36 24.17 3.02 22.58 1.96 20.73 1.18 18.89 0.39 16.95 0 14.93 0 12.91 0 10.98 0.39 9.13 1.18 7.29 1.96 5.69 3.02 4.36 4.36 3.02 5.69 1.96 7.29 1.18 9.13 0.39 10.98 0 12.91 0 14.93 0 16.95 0.39 18.89 1.18 20.73 1.96 22.58 3.02 24.17 4.36 25.5 5.69 26.84 7.29 27.9 9.13 28.68 10.98 29.47 12.91 29.86 14.93 29.86 17.5 29.86 19.93 29.23 22.21 27.97L23.56 29.33C23.83 29.6 24.15 29.73 24.53 29.73 24.9 29.73 25.22 29.6 25.49 29.33L26.94 27.89 32.09 33.06ZM32.26 34.25C32.12 34.11 31.96 34.04 31.79 34.04 31.61 34.04 31.45 34.11 31.3 34.25L29.37 36.16C29.25 36.3 29.18 36.46 29.18 36.65 29.18 36.83 29.25 37 29.37 37.14 29.52 37.26 29.68 37.33 29.86 37.33 30.05 37.33 30.21 37.26 30.35 37.14L32.26 35.21C32.4 35.08 32.47 34.92 32.47 34.73 32.47 34.54 32.4 34.38 32.26 34.25L32.26 34.25ZM37.14 29.37C36.98 29.25 36.82 29.18 36.65 29.18 36.48 29.18 36.32 29.25 36.16 29.37L34.25 31.3C34.11 31.43 34.04 31.59 34.04 31.78 34.04 31.97 34.11 32.13 34.25 32.26 34.38 32.4 34.54 32.47 34.73 32.47 34.92 32.47 35.08 32.4 35.21 32.26L37.14 30.35C37.26 30.21 37.33 30.05 37.33 29.86 37.33 29.68 37.26 29.52 37.14 29.37L37.14 29.37ZM38.01 33.26C38.01 33.06 37.94 32.89 37.82 32.77 37.69 32.64 37.53 32.58 37.33 32.58L35.29 32.58C35.09 32.58 34.93 32.64 34.8 32.77 34.68 32.89 34.61 33.06 34.61 33.26 34.61 33.45 34.68 33.62 34.8 33.74 34.93 33.87 35.09 33.93 35.29 33.93L37.33 33.93C37.53 33.93 37.69 33.87 37.82 33.74 37.94 33.62 38.01 33.45 38.01 33.26L38.01 33.26ZM33.93 37.33L33.93 35.29C33.93 35.09 33.87 34.93 33.74 34.8 33.62 34.68 33.45 34.61 33.26 34.61 33.06 34.61 32.89 34.68 32.77 34.8 32.64 34.93 32.58 35.09 32.58 35.29L32.58 37.33C32.58 37.53 32.64 37.69 32.77 37.82 32.89 37.94 33.06 38.01 33.26 38.01 33.45 38.01 33.62 37.94 33.74 37.82 33.87 37.69 33.93 37.53 33.93 37.33L33.93 37.33ZM37.14 36.16L35.21 34.25C35.07 34.11 34.91 34.04 34.74 34.04 34.56 34.04 34.39 34.11 34.25 34.25 34.11 34.38 34.04 34.54 34.04 34.73 34.04 34.92 34.11 35.08 34.25 35.21L36.16 37.14C36.3 37.26 36.46 37.33 36.65 37.33 36.83 37.33 37 37.26 37.14 37.14 37.26 37 37.33 36.83 37.33 36.65 37.33 36.46 37.26 36.3 37.14 36.16L37.14 36.16Z" transform="matrix(1 0 0 -1 0 38.006)"/>
      </g>
    </svg>
